{
	"asset":{
		"generator":"Khronos glTF Blender I/O v3.5.30",
		"version":"2.0"
	},
	"scene":0,
	"scenes":[
		{
			"name":"Scene",
			"nodes":[
				0
			]
		}
	],
	"nodes":[
		{
			"mesh":0,
			"name":"Cylinder"
		}
	],
	"materials":[
		{
			"doubleSided":true,
			"name":"Material.001",
			"pbrMetallicRoughness":{}
		}
	],
	"meshes":[
		{
			"name":"Cylinder.001",
			"primitives":[
				{
					"attributes":{
						"POSITION":0,
						"TEXCOORD_0":1,
						"NORMAL":2
					},
					"indices":3,
					"material":0
				}
			]
		}
	],
	"accessors":[
		{
			"bufferView":0,
			"componentType":5126,
			"count":216,
			"max":[
				0.5908846855163574,
				0.9898468255996704,
				0.6000000238418579
			],
			"min":[
				-0.5908846855163574,
				-0.010153204202651978,
				-0.6000000238418579
			],
			"type":"VEC3"
		},
		{
			"bufferView":1,
			"componentType":5126,
			"count":216,
			"type":"VEC2"
		},
		{
			"bufferView":2,
			"componentType":5126,
			"count":216,
			"type":"VEC3"
		},
		{
			"bufferView":3,
			"componentType":5123,
			"count":420,
			"type":"SCALAR"
		}
	],
	"bufferViews":[
		{
			"buffer":0,
			"byteLength":2592,
			"byteOffset":0,
			"target":34962
		},
		{
			"buffer":0,
			"byteLength":1728,
			"byteOffset":2592,
			"target":34962
		},
		{
			"buffer":0,
			"byteLength":2592,
			"byteOffset":4320,
			"target":34962
		},
		{
			"buffer":0,
			"byteLength":840,
			"byteOffset":6912,
			"target":34963
		}
	],
	"buffers":[
		{
			"byteLength":7752,
			"uri":"bin-5477e3a66f79b39f9e6e0e31e502c9b2.bin"
		}
	]
}
