{
	"asset":{
		"generator":"Khronos glTF Blender I/O v3.5.30",
		"version":"2.0"
	},
	"scene":0,
	"scenes":[
		{
			"name":"Scene",
			"nodes":[
				0,
				1
			]
		}
	],
	"nodes":[
		{
			"mesh":0,
			"name":"Cube"
		},
		{
			"mesh":1,
			"name":"Cylinder",
			"rotation":[
				0,
				0,
				-0.7071068286895752,
				0.7071068286895752
			],
			"scale":[
				0.5338727235794067,
				0.5338727235794067,
				0.5338727235794067
			],
			"translation":[
				1.4361176490783691,
				-0.7530683875083923,
				-2.5489718914031982
			]
		}
	],
	"materials":[
		{
			"doubleSided":true,
			"name":"body",
			"pbrMetallicRoughness":{}
		},
		{
			"doubleSided":true,
			"name":"wheel",
			"pbrMetallicRoughness":{}
		}
	],
	"meshes":[
		{
			"name":"Cube.001",
			"primitives":[
				{
					"attributes":{
						"POSITION":0,
						"TEXCOORD_0":1,
						"NORMAL":2,
						"TANGENT":3
					},
					"indices":4,
					"material":0
				}
			]
		},
		{
			"name":"Cylinder.001",
			"primitives":[
				{
					"attributes":{
						"POSITION":5,
						"TEXCOORD_0":6,
						"NORMAL":7
					},
					"indices":8,
					"material":1
				}
			]
		}
	],
	"accessors":[
		{
			"bufferView":0,
			"componentType":5126,
			"count":56,
			"max":[
				1.5505632162094116,
				1.1631227731704712,
				2.8278512954711914
			],
			"min":[
				-1.5658904314041138,
				-0.8429275751113892,
				-3.66644287109375
			],
			"type":"VEC3"
		},
		{
			"bufferView":1,
			"componentType":5126,
			"count":56,
			"type":"VEC2"
		},
		{
			"bufferView":2,
			"componentType":5126,
			"count":56,
			"type":"VEC3"
		},
		{
			"bufferView":3,
			"componentType":5126,
			"count":56,
			"type":"VEC4"
		},
		{
			"bufferView":4,
			"componentType":5123,
			"count":84,
			"type":"SCALAR"
		},
		{
			"bufferView":5,
			"componentType":5126,
			"count":480,
			"max":[
				1.0000004768371582,
				0.30000001192092896,
				9.339380264282227
			],
			"min":[
				-1,
				-5.680000305175781,
				-1
			],
			"type":"VEC3"
		},
		{
			"bufferView":6,
			"componentType":5126,
			"count":480,
			"type":"VEC2"
		},
		{
			"bufferView":7,
			"componentType":5126,
			"count":480,
			"type":"VEC3"
		},
		{
			"bufferView":8,
			"componentType":5123,
			"count":912,
			"type":"SCALAR"
		}
	],
	"bufferViews":[
		{
			"buffer":0,
			"byteLength":672,
			"byteOffset":0,
			"target":34962
		},
		{
			"buffer":0,
			"byteLength":448,
			"byteOffset":672,
			"target":34962
		},
		{
			"buffer":0,
			"byteLength":672,
			"byteOffset":1120,
			"target":34962
		},
		{
			"buffer":0,
			"byteLength":896,
			"byteOffset":1792,
			"target":34962
		},
		{
			"buffer":0,
			"byteLength":168,
			"byteOffset":2688,
			"target":34963
		},
		{
			"buffer":0,
			"byteLength":5760,
			"byteOffset":2856,
			"target":34962
		},
		{
			"buffer":0,
			"byteLength":3840,
			"byteOffset":8616,
			"target":34962
		},
		{
			"buffer":0,
			"byteLength":5760,
			"byteOffset":12456,
			"target":34962
		},
		{
			"buffer":0,
			"byteLength":1824,
			"byteOffset":18216,
			"target":34963
		}
	],
	"buffers":[
		{
			"byteLength":20040,
			"uri":"car-ae063e0c2b9dd3ff1830345b925f459e.bin"
		}
	]
}
