{
	"asset":{
		"generator":"Khronos glTF Blender I/O v3.5.30",
		"version":"2.0"
	},
	"scene":0,
	"scenes":[
		{
			"name":"Scene",
			"nodes":[
				0
			]
		}
	],
	"nodes":[
		{
			"mesh":0,
			"name":"Cylinder"
		}
	],
	"materials":[
		{
			"doubleSided":true,
			"name":"Material.001",
			"pbrMetallicRoughness":{}
		}
	],
	"meshes":[
		{
			"name":"Cylinder",
			"primitives":[
				{
					"attributes":{
						"POSITION":0,
						"TEXCOORD_0":1,
						"NORMAL":2
					},
					"indices":3,
					"material":0
				}
			]
		}
	],
	"accessors":[
		{
			"bufferView":0,
			"componentType":5126,
			"count":440,
			"max":[
				0.05000000074505806,
				0.28832364082336426,
				0.05000000074505806
			],
			"min":[
				-0.05000000074505806,
				-9.3117356300354e-05,
				-0.05000000074505806
			],
			"type":"VEC3"
		},
		{
			"bufferView":1,
			"componentType":5126,
			"count":440,
			"type":"VEC2"
		},
		{
			"bufferView":2,
			"componentType":5126,
			"count":440,
			"type":"VEC3"
		},
		{
			"bufferView":3,
			"componentType":5123,
			"count":708,
			"type":"SCALAR"
		}
	],
	"bufferViews":[
		{
			"buffer":0,
			"byteLength":5280,
			"byteOffset":0,
			"target":34962
		},
		{
			"buffer":0,
			"byteLength":3520,
			"byteOffset":5280,
			"target":34962
		},
		{
			"buffer":0,
			"byteLength":5280,
			"byteOffset":8800,
			"target":34962
		},
		{
			"buffer":0,
			"byteLength":1416,
			"byteOffset":14080,
			"target":34963
		}
	],
	"buffers":[
		{
			"byteLength":15496,
			"uri":"ketchup-eb6f9775535cb710d1f8b706efc9d86b.bin"
		}
	]
}
