{
	"asset":{
		"generator":"Khronos glTF Blender I/O v3.5.30",
		"version":"2.0"
	},
	"scene":0,
	"scenes":[
		{
			"name":"Scene",
			"nodes":[
				0
			]
		}
	],
	"nodes":[
		{
			"mesh":0,
			"name":"Cube"
		}
	],
	"meshes":[
		{
			"name":"Cube.002",
			"primitives":[
				{
					"attributes":{
						"POSITION":0,
						"TEXCOORD_0":1,
						"NORMAL":2,
						"TANGENT":3
					},
					"indices":4
				}
			]
		}
	],
	"accessors":[
		{
			"bufferView":0,
			"componentType":5126,
			"count":64,
			"max":[
				0.9086827635765076,
				7.018514633178711,
				1
			],
			"min":[
				-0.9086827635765076,
				-1.000000238418579,
				-1
			],
			"type":"VEC3"
		},
		{
			"bufferView":1,
			"componentType":5126,
			"count":64,
			"type":"VEC2"
		},
		{
			"bufferView":2,
			"componentType":5126,
			"count":64,
			"type":"VEC3"
		},
		{
			"bufferView":3,
			"componentType":5126,
			"count":64,
			"type":"VEC4"
		},
		{
			"bufferView":4,
			"componentType":5123,
			"count":96,
			"type":"SCALAR"
		}
	],
	"bufferViews":[
		{
			"buffer":0,
			"byteLength":768,
			"byteOffset":0,
			"target":34962
		},
		{
			"buffer":0,
			"byteLength":512,
			"byteOffset":768,
			"target":34962
		},
		{
			"buffer":0,
			"byteLength":768,
			"byteOffset":1280,
			"target":34962
		},
		{
			"buffer":0,
			"byteLength":1024,
			"byteOffset":2048,
			"target":34962
		},
		{
			"buffer":0,
			"byteLength":192,
			"byteOffset":3072,
			"target":34963
		}
	],
	"buffers":[
		{
			"byteLength":3264,
			"uri":"metal_pillar-48d87dc1de78791cc25f98860424981b.bin"
		}
	]
}
