{
	"asset":{
		"generator":"Khronos glTF Blender I/O v3.5.30",
		"version":"2.0"
	},
	"scene":0,
	"scenes":[
		{
			"name":"Scene",
			"nodes":[
				0
			]
		}
	],
	"nodes":[
		{
			"mesh":0,
			"name":"Cylinder"
		}
	],
	"materials":[
		{
			"doubleSided":true,
			"name":"Material.001",
			"pbrMetallicRoughness":{}
		}
	],
	"meshes":[
		{
			"name":"Cylinder.001",
			"primitives":[
				{
					"attributes":{
						"POSITION":0,
						"TEXCOORD_0":1,
						"NORMAL":2
					},
					"indices":3,
					"material":0
				}
			]
		}
	],
	"accessors":[
		{
			"bufferView":0,
			"componentType":5126,
			"count":61,
			"max":[
				0.5701789855957031,
				0.8613425493240356,
				0.5701789855957031
			],
			"min":[
				-0.5701789855957031,
				-0.5361462831497192,
				-0.5701789855957031
			],
			"type":"VEC3"
		},
		{
			"bufferView":1,
			"componentType":5126,
			"count":61,
			"type":"VEC2"
		},
		{
			"bufferView":2,
			"componentType":5126,
			"count":61,
			"type":"VEC3"
		},
		{
			"bufferView":3,
			"componentType":5123,
			"count":180,
			"type":"SCALAR"
		}
	],
	"bufferViews":[
		{
			"buffer":0,
			"byteLength":732,
			"byteOffset":0,
			"target":34962
		},
		{
			"buffer":0,
			"byteLength":488,
			"byteOffset":732,
			"target":34962
		},
		{
			"buffer":0,
			"byteLength":732,
			"byteOffset":1220,
			"target":34962
		},
		{
			"buffer":0,
			"byteLength":360,
			"byteOffset":1952,
			"target":34963
		}
	],
	"buffers":[
		{
			"byteLength":2312,
			"uri":"Traffic%20Cone-3b57ad77ff832be7ade43374df3e033f.bin"
		}
	]
}
